<svg xmlns="http://www.w3.org/2000/svg" viewBox="0 0 1920 1080"><g transform="
          rotate(90 960 540) 
          translate(-746.6666666666665 -420)
          scale(1.7777777777777777)
        "><rect width="1920" height="1080" fill="rgb(255, 255, 255)"></rect><g transform="translate(0, 0)"><path fill="rgb(172, 247, 255)" fill-opacity="1" d="M0,117.648L11.852,116.692C23.704,115.736,47.407,113.824,71.111,113.527C94.815,113.231,118.519,114.55,142.222,114.698C165.926,114.847,189.63,113.824,213.333,101.061C237.037,88.298,260.741,63.794,284.444,61.725C308.148,59.656,331.852,80.02,355.556,73.779C379.259,67.537,402.963,34.69,426.667,32.827C450.37,30.964,474.074,60.086,497.778,67.34C521.481,74.593,545.185,59.979,568.889,46.452C592.593,32.925,616.296,20.485,640,26.906C663.704,33.328,687.407,58.61,711.111,63.168C734.815,67.727,758.519,51.562,782.222,43.471C805.926,35.38,829.63,35.363,853.333,47.091C877.037,58.819,900.741,82.292,924.444,94.899C948.148,107.506,971.852,109.246,995.556,94.892C1019.259,80.537,1042.963,50.088,1066.667,37.541C1090.37,24.994,1114.074,30.351,1137.778,42.091C1161.481,53.831,1185.185,71.955,1208.889,84.777C1232.593,97.598,1256.296,105.117,1280,100.171C1303.704,95.226,1327.407,77.817,1351.111,60.104C1374.815,42.391,1398.519,24.374,1422.222,14.455C1445.926,4.535,1469.63,2.714,1493.333,13.693C1517.037,24.672,1540.741,48.453,1564.444,55.927C1588.148,63.402,1611.852,54.571,1635.556,45.392C1659.259,36.214,1682.963,26.687,1706.667,24.085C1730.37,21.483,1754.074,25.804,1777.778,28.869C1801.481,31.935,1825.185,33.744,1848.889,44.352C1872.593,54.96,1896.296,74.367,1908.148,84.071L1920,93.774L1920,1080L1908.148,1080C1896.296,1080,1872.593,1080,1848.889,1080C1825.185,1080,1801.481,1080,1777.778,1080C1754.074,1080,1730.37,1080,1706.667,1080C1682.963,1080,1659.259,1080,1635.556,1080C1611.852,1080,1588.148,1080,1564.444,1080C1540.741,1080,1517.037,1080,1493.333,1080C1469.63,1080,1445.926,1080,1422.222,1080C1398.519,1080,1374.815,1080,1351.111,1080C1327.407,1080,1303.704,1080,1280,1080C1256.296,1080,1232.593,1080,1208.889,1080C1185.185,1080,1161.481,1080,1137.778,1080C1114.074,1080,1090.37,1080,1066.667,1080C1042.963,1080,1019.259,1080,995.556,1080C971.852,1080,948.148,1080,924.444,1080C900.741,1080,877.037,1080,853.333,1080C829.63,1080,805.926,1080,782.222,1080C758.519,1080,734.815,1080,711.111,1080C687.407,1080,663.704,1080,640,1080C616.296,1080,592.593,1080,568.889,1080C545.185,1080,521.481,1080,497.778,1080C474.074,1080,450.37,1080,426.667,1080C402.963,1080,379.259,1080,355.556,1080C331.852,1080,308.148,1080,284.444,1080C260.741,1080,237.037,1080,213.333,1080C189.63,1080,165.926,1080,142.222,1080C118.519,1080,94.815,1080,71.111,1080C47.407,1080,23.704,1080,11.852,1080L0,1080Z"></path></g><g transform="translate(0, 120)"><path fill="rgb(98, 238, 252)" fill-opacity="1" d="M0,114.851L11.852,115.552C23.704,116.254,47.407,117.656,71.111,109.541C94.815,101.426,118.519,83.794,142.222,69.765C165.926,55.736,189.63,45.311,213.333,36.212C237.037,27.113,260.741,19.341,284.444,30.824C308.148,42.308,331.852,73.048,355.556,90.722C379.259,108.396,402.963,113.004,426.667,115.472C450.37,117.939,474.074,118.266,497.778,111.427C521.481,104.588,545.185,90.584,568.889,81.839C592.593,73.094,616.296,69.608,640,62.486C663.704,55.364,687.407,44.606,711.111,53.103C734.815,61.601,758.519,89.355,782.222,100.929C805.926,112.503,829.63,107.897,853.333,106.588C877.037,105.278,900.741,107.265,924.444,104.96C948.148,102.655,971.852,96.057,995.556,79.596C1019.259,63.136,1042.963,36.814,1066.667,39.966C1090.37,43.118,1114.074,75.745,1137.778,83.157C1161.481,90.57,1185.185,72.769,1208.889,57.632C1232.593,42.495,1256.296,30.023,1280,29.766C1303.704,29.509,1327.407,41.467,1351.111,58.131C1374.815,74.795,1398.519,96.165,1422.222,97.446C1445.926,98.728,1469.63,79.922,1493.333,68.84C1517.037,57.758,1540.741,54.4,1564.444,45.477C1588.148,36.553,1611.852,22.064,1635.556,14.648C1659.259,7.232,1682.963,6.889,1706.667,13.413C1730.37,19.936,1754.074,33.327,1777.778,51.475C1801.481,69.623,1825.185,92.528,1848.889,100.295C1872.593,108.062,1896.296,100.69,1908.148,97.004L1920,93.318L1920,960L1908.148,960C1896.296,960,1872.593,960,1848.889,960C1825.185,960,1801.481,960,1777.778,960C1754.074,960,1730.37,960,1706.667,960C1682.963,960,1659.259,960,1635.556,960C1611.852,960,1588.148,960,1564.444,960C1540.741,960,1517.037,960,1493.333,960C1469.63,960,1445.926,960,1422.222,960C1398.519,960,1374.815,960,1351.111,960C1327.407,960,1303.704,960,1280,960C1256.296,960,1232.593,960,1208.889,960C1185.185,960,1161.481,960,1137.778,960C1114.074,960,1090.37,960,1066.667,960C1042.963,960,1019.259,960,995.556,960C971.852,960,948.148,960,924.444,960C900.741,960,877.037,960,853.333,960C829.63,960,805.926,960,782.222,960C758.519,960,734.815,960,711.111,960C687.407,960,663.704,960,640,960C616.296,960,592.593,960,568.889,960C545.185,960,521.481,960,497.778,960C474.074,960,450.37,960,426.667,960C402.963,960,379.259,960,355.556,960C331.852,960,308.148,960,284.444,960C260.741,960,237.037,960,213.333,960C189.63,960,165.926,960,142.222,960C118.519,960,94.815,960,71.111,960C47.407,960,23.704,960,11.852,960L0,960Z"></path></g><g transform="translate(0, 240)"><path fill="rgb(43, 227, 246)" fill-opacity="1" d="M0,16.396L11.852,32.371C23.704,48.346,47.407,80.296,71.111,85.287C94.815,90.278,118.519,68.31,142.222,63.161C165.926,58.012,189.63,69.684,213.333,70.403C237.037,71.122,260.741,60.888,284.444,62.09C308.148,63.292,331.852,75.93,355.556,82.077C379.259,88.224,402.963,87.881,426.667,81.985C450.37,76.089,474.074,64.64,497.778,61.336C521.481,58.032,545.185,62.874,568.889,65.241C592.593,67.607,616.296,67.499,640,66.321C663.704,65.144,687.407,62.897,711.111,60.926C734.815,58.954,758.519,57.258,782.222,49.186C805.926,41.115,829.63,26.668,853.333,18.042C877.037,9.415,900.741,6.608,924.444,10.616C948.148,14.624,971.852,25.447,995.556,32.251C1019.259,39.055,1042.963,41.84,1066.667,42.471C1090.37,43.103,1114.074,41.58,1137.778,45.137C1161.481,48.694,1185.185,57.331,1208.889,63.555C1232.593,69.778,1256.296,73.589,1280,79.554C1303.704,85.519,1327.407,93.639,1351.111,92.252C1374.815,90.865,1398.519,79.972,1422.222,68.708C1445.926,57.444,1469.63,45.81,1493.333,46.1C1517.037,46.39,1540.741,58.605,1564.444,56.664C1588.148,54.724,1611.852,38.629,1635.556,42.997C1659.259,47.365,1682.963,72.197,1706.667,77.072C1730.37,81.946,1754.074,66.863,1777.778,70.223C1801.481,73.583,1825.185,95.387,1848.889,104.577C1872.593,113.766,1896.296,110.341,1908.148,108.629L1920,106.916L1920,840L1908.148,840C1896.296,840,1872.593,840,1848.889,840C1825.185,840,1801.481,840,1777.778,840C1754.074,840,1730.37,840,1706.667,840C1682.963,840,1659.259,840,1635.556,840C1611.852,840,1588.148,840,1564.444,840C1540.741,840,1517.037,840,1493.333,840C1469.63,840,1445.926,840,1422.222,840C1398.519,840,1374.815,840,1351.111,840C1327.407,840,1303.704,840,1280,840C1256.296,840,1232.593,840,1208.889,840C1185.185,840,1161.481,840,1137.778,840C1114.074,840,1090.37,840,1066.667,840C1042.963,840,1019.259,840,995.556,840C971.852,840,948.148,840,924.444,840C900.741,840,877.037,840,853.333,840C829.63,840,805.926,840,782.222,840C758.519,840,734.815,840,711.111,840C687.407,840,663.704,840,640,840C616.296,840,592.593,840,568.889,840C545.185,840,521.481,840,497.778,840C474.074,840,450.37,840,426.667,840C402.963,840,379.259,840,355.556,840C331.852,840,308.148,840,284.444,840C260.741,840,237.037,840,213.333,840C189.63,840,165.926,840,142.222,840C118.519,840,94.815,840,71.111,840C47.407,840,23.704,840,11.852,840L0,840Z"></path></g><g transform="translate(0, 360)"><path fill="rgb(13, 214, 235)" fill-opacity="1" d="M0,59.503L11.852,66.436C23.704,73.368,47.407,87.234,71.111,86.095C94.815,84.956,118.519,68.812,142.222,62.174C165.926,55.536,189.63,58.403,213.333,52.124C237.037,45.845,260.741,30.42,284.444,32.929C308.148,35.439,331.852,55.884,355.556,53.411C379.259,50.939,402.963,25.55,426.667,21.656C450.37,17.762,474.074,35.364,497.778,51.641C521.481,67.918,545.185,82.869,568.889,74.271C592.593,65.672,616.296,33.523,640,31.738C663.704,29.952,687.407,58.531,711.111,63.048C734.815,67.565,758.519,48.019,782.222,42.928C805.926,37.836,829.63,47.199,853.333,49.981C877.037,52.763,900.741,48.963,924.444,56.164C948.148,63.364,971.852,81.564,995.556,75.63C1019.259,69.695,1042.963,39.627,1066.667,37.773C1090.37,35.919,1114.074,62.28,1137.778,70.895C1161.481,79.509,1185.185,70.378,1208.889,73.668C1232.593,76.958,1256.296,92.67,1280,92.887C1303.704,93.105,1327.407,77.829,1351.111,60.646C1374.815,43.463,1398.519,24.373,1422.222,22.884C1445.926,21.394,1469.63,37.504,1493.333,54.131C1517.037,70.757,1540.741,87.901,1564.444,83.05C1588.148,78.199,1611.852,51.355,1635.556,38.388C1659.259,25.422,1682.963,26.334,1706.667,37.202C1730.37,48.071,1754.074,68.896,1777.778,82.664C1801.481,96.432,1825.185,103.142,1848.889,98.01C1872.593,92.879,1896.296,75.906,1908.148,67.419L1920,58.932L1920,720L1908.148,720C1896.296,720,1872.593,720,1848.889,720C1825.185,720,1801.481,720,1777.778,720C1754.074,720,1730.37,720,1706.667,720C1682.963,720,1659.259,720,1635.556,720C1611.852,720,1588.148,720,1564.444,720C1540.741,720,1517.037,720,1493.333,720C1469.63,720,1445.926,720,1422.222,720C1398.519,720,1374.815,720,1351.111,720C1327.407,720,1303.704,720,1280,720C1256.296,720,1232.593,720,1208.889,720C1185.185,720,1161.481,720,1137.778,720C1114.074,720,1090.37,720,1066.667,720C1042.963,720,1019.259,720,995.556,720C971.852,720,948.148,720,924.444,720C900.741,720,877.037,720,853.333,720C829.63,720,805.926,720,782.222,720C758.519,720,734.815,720,711.111,720C687.407,720,663.704,720,640,720C616.296,720,592.593,720,568.889,720C545.185,720,521.481,720,497.778,720C474.074,720,450.37,720,426.667,720C402.963,720,379.259,720,355.556,720C331.852,720,308.148,720,284.444,720C260.741,720,237.037,720,213.333,720C189.63,720,165.926,720,142.222,720C118.519,720,94.815,720,71.111,720C47.407,720,23.704,720,11.852,720L0,720Z"></path></g><g transform="translate(0, 480)"><path fill="rgb(2, 200, 220)" fill-opacity="1" d="M0,102.288L11.852,94.648C23.704,87.008,47.407,71.729,71.111,70.591C94.815,69.454,118.519,82.458,142.222,85.574C165.926,88.689,189.63,81.915,213.333,72.581C237.037,63.247,260.741,51.353,284.444,44.494C308.148,37.635,331.852,35.81,355.556,30.182C379.259,24.553,402.963,15.122,426.667,26.582C450.37,38.042,474.074,70.394,497.778,88.445C521.481,106.497,545.185,110.247,568.889,96.388C592.593,82.529,616.296,51.06,640,35.067C663.704,19.073,687.407,18.555,711.111,17.215C734.815,15.875,758.519,13.714,782.222,16.81C805.926,19.906,829.63,28.26,853.333,33.309C877.037,38.358,900.741,40.102,924.444,38.489C948.148,36.876,971.852,31.907,995.556,29.032C1019.259,26.157,1042.963,25.376,1066.667,30.435C1090.37,35.494,1114.074,46.394,1137.778,55.455C1161.481,64.516,1185.185,71.739,1208.889,82.005C1232.593,92.272,1256.296,105.583,1280,95.628C1303.704,85.672,1327.407,52.45,1351.111,35.954C1374.815,19.458,1398.519,19.688,1422.222,20.281C1445.926,20.874,1469.63,21.83,1493.333,34.708C1517.037,47.587,1540.741,72.388,1564.444,79.813C1588.148,87.238,1611.852,77.288,1635.556,72.621C1659.259,67.953,1682.963,68.569,1706.667,63.633C1730.37,58.696,1754.074,48.207,1777.778,55.805C1801.481,63.404,1825.185,89.089,1848.889,82.85C1872.593,76.61,1896.296,38.445,1908.148,19.363L1920,0.28L1920,600L1908.148,600C1896.296,600,1872.593,600,1848.889,600C1825.185,600,1801.481,600,1777.778,600C1754.074,600,1730.37,600,1706.667,600C1682.963,600,1659.259,600,1635.556,600C1611.852,600,1588.148,600,1564.444,600C1540.741,600,1517.037,600,1493.333,600C1469.63,600,1445.926,600,1422.222,600C1398.519,600,1374.815,600,1351.111,600C1327.407,600,1303.704,600,1280,600C1256.296,600,1232.593,600,1208.889,600C1185.185,600,1161.481,600,1137.778,600C1114.074,600,1090.37,600,1066.667,600C1042.963,600,1019.259,600,995.556,600C971.852,600,948.148,600,924.444,600C900.741,600,877.037,600,853.333,600C829.63,600,805.926,600,782.222,600C758.519,600,734.815,600,711.111,600C687.407,600,663.704,600,640,600C616.296,600,592.593,600,568.889,600C545.185,600,521.481,600,497.778,600C474.074,600,450.37,600,426.667,600C402.963,600,379.259,600,355.556,600C331.852,600,308.148,600,284.444,600C260.741,600,237.037,600,213.333,600C189.63,600,165.926,600,142.222,600C118.519,600,94.815,600,71.111,600C47.407,600,23.704,600,11.852,600L0,600Z"></path></g><g transform="translate(0, 600)"><path fill="rgb(0, 188, 207)" fill-opacity="1" d="M0,44.44L11.852,38.349C23.704,32.258,47.407,20.076,71.111,25.891C94.815,31.706,118.519,55.519,142.222,63.484C165.926,71.449,189.63,63.567,213.333,52.108C237.037,40.65,260.741,25.616,284.444,26.677C308.148,27.737,331.852,44.891,355.556,51.869C379.259,58.846,402.963,55.646,426.667,61.448C450.37,67.249,474.074,82.052,497.778,80.061C521.481,78.071,545.185,59.286,568.889,51.53C592.593,43.773,616.296,47.044,640,56.881C663.704,66.719,687.407,83.122,711.111,77.609C734.815,72.096,758.519,44.666,782.222,35.037C805.926,25.408,829.63,33.579,853.333,44.436C877.037,55.292,900.741,68.835,924.444,79.701C948.148,90.567,971.852,98.755,995.556,102.327C1019.259,105.899,1042.963,104.854,1066.667,87.395C1090.37,69.936,1114.074,36.064,1137.778,25.219C1161.481,14.375,1185.185,26.558,1208.889,34.252C1232.593,41.945,1256.296,45.148,1280,47.195C1303.704,49.241,1327.407,50.131,1351.111,60.176C1374.815,70.221,1398.519,89.421,1422.222,88.998C1445.926,88.575,1469.63,68.53,1493.333,64.641C1517.037,60.753,1540.741,73.02,1564.444,74.143C1588.148,75.266,1611.852,65.244,1635.556,54.732C1659.259,44.221,1682.963,33.219,1706.667,39.854C1730.37,46.488,1754.074,70.759,1777.778,82.425C1801.481,94.092,1825.185,93.154,1848.889,83.752C1872.593,74.349,1896.296,56.482,1908.148,47.548L1920,38.614L1920,480L1908.148,480C1896.296,480,1872.593,480,1848.889,480C1825.185,480,1801.481,480,1777.778,480C1754.074,480,1730.37,480,1706.667,480C1682.963,480,1659.259,480,1635.556,480C1611.852,480,1588.148,480,1564.444,480C1540.741,480,1517.037,480,1493.333,480C1469.63,480,1445.926,480,1422.222,480C1398.519,480,1374.815,480,1351.111,480C1327.407,480,1303.704,480,1280,480C1256.296,480,1232.593,480,1208.889,480C1185.185,480,1161.481,480,1137.778,480C1114.074,480,1090.37,480,1066.667,480C1042.963,480,1019.259,480,995.556,480C971.852,480,948.148,480,924.444,480C900.741,480,877.037,480,853.333,480C829.63,480,805.926,480,782.222,480C758.519,480,734.815,480,711.111,480C687.407,480,663.704,480,640,480C616.296,480,592.593,480,568.889,480C545.185,480,521.481,480,497.778,480C474.074,480,450.37,480,426.667,480C402.963,480,379.259,480,355.556,480C331.852,480,308.148,480,284.444,480C260.741,480,237.037,480,213.333,480C189.63,480,165.926,480,142.222,480C118.519,480,94.815,480,71.111,480C47.407,480,23.704,480,11.852,480L0,480Z"></path></g><g transform="translate(0, 720)"><path fill="rgb(0, 179, 197)" fill-opacity="1" d="M0,59.768L11.852,54.415C23.704,49.062,47.407,38.356,71.111,46.191C94.815,54.027,118.519,80.405,142.222,92.875C165.926,105.345,189.63,103.906,213.333,95.396C237.037,86.886,260.741,71.305,284.444,71.534C308.148,71.763,331.852,87.803,355.556,91.173C379.259,94.544,402.963,85.245,426.667,74.535C450.37,63.825,474.074,51.703,497.778,58.164C521.481,64.624,545.185,89.667,568.889,91.423C592.593,93.179,616.296,71.648,640,64.094C663.704,56.541,687.407,62.966,711.111,60.671C734.815,58.376,758.519,47.36,782.222,55.272C805.926,63.183,829.63,90.021,853.333,99.503C877.037,108.985,900.741,101.11,924.444,88.666C948.148,76.222,971.852,59.208,995.556,52.313C1019.259,45.417,1042.963,48.641,1066.667,51.356C1090.37,54.071,1114.074,56.278,1137.778,59.747C1161.481,63.215,1185.185,67.946,1208.889,68.237C1232.593,68.528,1256.296,64.379,1280,60.402C1303.704,56.425,1327.407,52.62,1351.111,57.869C1374.815,63.118,1398.519,77.42,1422.222,81.166C1445.926,84.912,1469.63,78.101,1493.333,66.204C1517.037,54.308,1540.741,37.326,1564.444,32.334C1588.148,27.342,1611.852,34.341,1635.556,38.814C1659.259,43.287,1682.963,45.235,1706.667,48.501C1730.37,51.768,1754.074,56.352,1777.778,54.749C1801.481,53.145,1825.185,45.354,1848.889,41.644C1872.593,37.934,1896.296,38.307,1908.148,38.493L1920,38.679L1920,360L1908.148,360C1896.296,360,1872.593,360,1848.889,360C1825.185,360,1801.481,360,1777.778,360C1754.074,360,1730.37,360,1706.667,360C1682.963,360,1659.259,360,1635.556,360C1611.852,360,1588.148,360,1564.444,360C1540.741,360,1517.037,360,1493.333,360C1469.63,360,1445.926,360,1422.222,360C1398.519,360,1374.815,360,1351.111,360C1327.407,360,1303.704,360,1280,360C1256.296,360,1232.593,360,1208.889,360C1185.185,360,1161.481,360,1137.778,360C1114.074,360,1090.37,360,1066.667,360C1042.963,360,1019.259,360,995.556,360C971.852,360,948.148,360,924.444,360C900.741,360,877.037,360,853.333,360C829.63,360,805.926,360,782.222,360C758.519,360,734.815,360,711.111,360C687.407,360,663.704,360,640,360C616.296,360,592.593,360,568.889,360C545.185,360,521.481,360,497.778,360C474.074,360,450.37,360,426.667,360C402.963,360,379.259,360,355.556,360C331.852,360,308.148,360,284.444,360C260.741,360,237.037,360,213.333,360C189.63,360,165.926,360,142.222,360C118.519,360,94.815,360,71.111,360C47.407,360,23.704,360,11.852,360L0,360Z"></path></g><g transform="translate(0, 840)"><path fill="rgb(0, 173, 190)" fill-opacity="1" d="M0,45.02L11.852,43.996C23.704,42.972,47.407,40.925,71.111,46.29C94.815,51.656,118.519,64.434,142.222,61.591C165.926,58.749,189.63,40.286,213.333,33.676C237.037,27.066,260.741,32.309,284.444,40.995C308.148,49.68,331.852,61.808,355.556,61.18C379.259,60.552,402.963,47.168,426.667,40.917C450.37,34.667,474.074,35.549,497.778,46.992C521.481,58.435,545.185,80.439,568.889,81.266C592.593,82.094,616.296,61.744,640,46.088C663.704,30.431,687.407,19.467,711.111,21.676C734.815,23.886,758.519,39.269,782.222,52.081C805.926,64.892,829.63,75.132,853.333,85.608C877.037,96.084,900.741,106.796,924.444,94.948C948.148,83.101,971.852,48.695,995.556,48.202C1019.259,47.709,1042.963,81.129,1066.667,89.156C1090.37,97.182,1114.074,79.814,1137.778,63.858C1161.481,47.902,1185.185,33.358,1208.889,24.388C1232.593,15.417,1256.296,12.02,1280,16.047C1303.704,20.074,1327.407,31.525,1351.111,48.796C1374.815,66.066,1398.519,89.156,1422.222,81.995C1445.926,74.833,1469.63,37.421,1493.333,22.292C1517.037,7.164,1540.741,14.319,1564.444,30.602C1588.148,46.885,1611.852,72.296,1635.556,86.63C1659.259,100.963,1682.963,104.22,1706.667,97.337C1730.37,90.454,1754.074,73.431,1777.778,62.536C1801.481,51.64,1825.185,46.874,1848.889,37.71C1872.593,28.546,1896.296,14.985,1908.148,8.204L1920,1.423L1920,240L1908.148,240C1896.296,240,1872.593,240,1848.889,240C1825.185,240,1801.481,240,1777.778,240C1754.074,240,1730.37,240,1706.667,240C1682.963,240,1659.259,240,1635.556,240C1611.852,240,1588.148,240,1564.444,240C1540.741,240,1517.037,240,1493.333,240C1469.63,240,1445.926,240,1422.222,240C1398.519,240,1374.815,240,1351.111,240C1327.407,240,1303.704,240,1280,240C1256.296,240,1232.593,240,1208.889,240C1185.185,240,1161.481,240,1137.778,240C1114.074,240,1090.37,240,1066.667,240C1042.963,240,1019.259,240,995.556,240C971.852,240,948.148,240,924.444,240C900.741,240,877.037,240,853.333,240C829.63,240,805.926,240,782.222,240C758.519,240,734.815,240,711.111,240C687.407,240,663.704,240,640,240C616.296,240,592.593,240,568.889,240C545.185,240,521.481,240,497.778,240C474.074,240,450.37,240,426.667,240C402.963,240,379.259,240,355.556,240C331.852,240,308.148,240,284.444,240C260.741,240,237.037,240,213.333,240C189.63,240,165.926,240,142.222,240C118.519,240,94.815,240,71.111,240C47.407,240,23.704,240,11.852,240L0,240Z"></path></g><g transform="translate(0, 960)"><path fill="rgb(0, 167, 184)" fill-opacity="1" d="M0,65.23L11.852,54.645C23.704,44.06,47.407,22.889,71.111,31.645C94.815,40.401,118.519,79.084,142.222,79.678C165.926,80.271,189.63,42.774,213.333,31.827C237.037,20.88,260.741,36.483,284.444,43.671C308.148,50.859,331.852,49.63,355.556,47.926C379.259,46.222,402.963,44.041,426.667,42.235C450.37,40.428,474.074,38.995,497.778,48.047C521.481,57.099,545.185,76.637,568.889,72.177C592.593,67.716,616.296,39.258,640,35.389C663.704,31.52,687.407,52.24,711.111,65.616C734.815,78.991,758.519,85.023,782.222,77.953C805.926,70.883,829.63,50.712,853.333,39.969C877.037,29.226,900.741,27.91,924.444,28.376C948.148,28.842,971.852,31.089,995.556,29.681C1019.259,28.274,1042.963,23.213,1066.667,23.6C1090.37,23.986,1114.074,29.821,1137.778,44.465C1161.481,59.11,1185.185,82.564,1208.889,92.293C1232.593,102.021,1256.296,98.024,1280,85.865C1303.704,73.705,1327.407,53.382,1351.111,49.884C1374.815,46.386,1398.519,59.714,1422.222,62.523C1445.926,65.333,1469.63,57.625,1493.333,57.479C1517.037,57.333,1540.741,64.75,1564.444,71.837C1588.148,78.924,1611.852,85.682,1635.556,92.558C1659.259,99.434,1682.963,106.429,1706.667,102.088C1730.37,97.748,1754.074,82.073,1777.778,63.917C1801.481,45.761,1825.185,25.124,1848.889,27.932C1872.593,30.74,1896.296,56.993,1908.148,70.12L1920,83.246L1920,120L1908.148,120C1896.296,120,1872.593,120,1848.889,120C1825.185,120,1801.481,120,1777.778,120C1754.074,120,1730.37,120,1706.667,120C1682.963,120,1659.259,120,1635.556,120C1611.852,120,1588.148,120,1564.444,120C1540.741,120,1517.037,120,1493.333,120C1469.63,120,1445.926,120,1422.222,120C1398.519,120,1374.815,120,1351.111,120C1327.407,120,1303.704,120,1280,120C1256.296,120,1232.593,120,1208.889,120C1185.185,120,1161.481,120,1137.778,120C1114.074,120,1090.37,120,1066.667,120C1042.963,120,1019.259,120,995.556,120C971.852,120,948.148,120,924.444,120C900.741,120,877.037,120,853.333,120C829.63,120,805.926,120,782.222,120C758.519,120,734.815,120,711.111,120C687.407,120,663.704,120,640,120C616.296,120,592.593,120,568.889,120C545.185,120,521.481,120,497.778,120C474.074,120,450.37,120,426.667,120C402.963,120,379.259,120,355.556,120C331.852,120,308.148,120,284.444,120C260.741,120,237.037,120,213.333,120C189.63,120,165.926,120,142.222,120C118.519,120,94.815,120,71.111,120C47.407,120,23.704,120,11.852,120L0,120Z"></path></g></g></svg>